<svg id="Layer_1" data-name="Layer 1" xmlns="http://www.w3.org/2000/svg" xmlns:xlink="http://www.w3.org/1999/xlink" viewBox="0 0 2159.16 1948.77"><defs><style>.cls-1{fill:none;}.cls-2{fill:#fff;}.cls-3{clip-path:url(#clip-path);}.cls-4{fill:#4864af;}.cls-5{fill:#dddee0;}.cls-6{fill:#010101;}.cls-7{fill:#53a8da;}</style><clipPath id="clip-path" transform="translate(-608.6 -297.06)"><rect id="SVGID" class="cls-1" x="608.58" y="297.06" width="1535.03" height="1479.45"/></clipPath></defs><title>akhdefo_logo</title><path class="cls-2" d="M853.32,2186.36H731.44l-18.53,56.06H612.48l125.3-343.71H848l124.8,343.71H871.85Zm-23.89-73.13-37-111.16-36.57,111.16Zm350.5,129.19-75.56-112.13v112.13h-95.56V1881.65h95.56v194.52l75.56-107.25H1294.5L1186.76,2106.4l109.69,136Zm403.42-244.49q27.54,31.44,27.54,85.07v159.42h-95.55V2095.68q0-23.41-12.19-36.81t-32.66-13.41q-21.45,0-33.64,13.41t-12.19,36.81v146.74H1329.1V1881.65h95.56v126.27q12.67-18.53,34.37-30t50-11.46Q1555.8,1966.48,1583.35,1997.93Zm84.82,33.39q15.35-31.68,42.17-48.75a108.46,108.46,0,0,1,59.48-17.06q26.33,0,47,11a82.5,82.5,0,0,1,32.42,30V1881.65h96v360.77h-96v-38a81.13,81.13,0,0,1-31.69,30.23q-20.47,11.22-48.26,11.21-32.67,0-59.24-17.06t-41.92-49q-15.36-31.93-15.36-74.34T1668.17,2031.32ZM1835.39,2064a46.88,46.88,0,0,0-35.35-15.12q-21.45,0-35.59,14.87t-14.14,41.69q0,26.33,14.14,41.68t35.59,15.36a46.88,46.88,0,0,0,35.35-15.12q14.38-15.1,14.38-41.92Q1849.77,2079.09,1835.39,2064Zm429.26,60.94H2083.78q1.45,22.43,12.43,33.39t28,11q23.9,0,34.13-21.45h101.89a119.17,119.17,0,0,1-24.62,50.46q-18.29,22.18-46.07,34.86t-61.43,12.67q-40.45,0-71.91-17.06A122.67,122.67,0,0,1,2007,2180q-17.79-31.7-17.79-74.59t17.55-74.35a121.26,121.26,0,0,1,49-48.51q31.44-17.07,72.39-17.06,40.47,0,71.67,16.57a119.39,119.39,0,0,1,48.75,47.54q17.55,30.95,17.55,72.88A172.4,172.4,0,0,1,2264.65,2124.93Zm-96-46.32q0-17.55-11.7-27.54t-29.25-10q-17.55,0-28.77,9.51t-14.62,28Zm289.08-30.22h-42.9v194h-96v-194H2289v-79.47h29.74v-2.44q0-52.65,31-80.68t89-28q11.7,0,18,.49v81.42a90.28,90.28,0,0,0-10.73-.49q-15.6,0-22.91,7.07t-8.29,22.67h42.9Zm92.87,180.38a125.91,125.91,0,0,1-50.95-48.75q-18.53-31.7-18.52-74.59,0-42.42,18.77-74.11a127.4,127.4,0,0,1,51.19-48.75q32.41-17.07,73.37-17.06t73.37,17.06a127.33,127.33,0,0,1,51.19,48.75q18.78,31.69,18.77,74.11T2749,2179.77a126.5,126.5,0,0,1-51.43,49q-32.67,17.07-73.62,17.06T2550.56,2228.77Zm106.77-80.69q13.41-14.86,13.41-42.65T2657.33,2063q-13.41-14.62-32.91-14.62T2591.76,2063q-13.17,14.63-13.17,42.42,0,28.28,12.68,42.9t32.66,14.62A43.11,43.11,0,0,0,2657.33,2148.08Z" transform="translate(-608.6 -297.06)"/><g class="cls-3"><g class="cls-3"><path class="cls-4" d="M2136.78,945.08c-6.79-38-14.17-75.79-21.28-113.68-3.36-18-5.83-36.18-11.7-53.59a562.9,562.9,0,0,0-37.42-86.22c-34.52-64.59-81.35-119.12-136.32-167-25.42-22.14-51.51-43.5-81.26-59.7-51.36-28-102.07-57.18-155.32-81.56C1632,355.21,1570.58,327,1503,316c-10.61-1.73-21.14-4.12-31.77-5.92a892.37,892.37,0,0,0-149.27-13c-20.3,0-40.52,1.32-60.78,1.67a515.15,515.15,0,0,0-75.08,7.27c-41.11,6.79-80.54,19.51-119.58,33.72a465.78,465.78,0,0,0-118.81,65.66c-33.45,24.87-114.25,99.68-120.36,106.69-5.2,6-53.76,58.72-64.8,70.77-2.2,2.39-4.43,4.67-6.74,6.86-6.64,13.71-33.47,44.76-36,49.11A867.81,867.81,0,0,0,611.8,971.33c-6.21,52.56-2.69,105.29,4.5,157.48a855,855,0,0,0,54.45,201,748.25,748.25,0,0,0,129.78,211.29,477.72,477.72,0,0,0,66.36,63.8c59.93,47.09,125.6,84.77,193.92,118.08a85.35,85.35,0,0,0,12.94,4.49,1280.7,1280.7,0,0,0,176.91,38.79,769.55,769.55,0,0,0,121,10.19A976.9,976.9,0,0,0,1527.78,1762a744.41,744.41,0,0,0,97.74-24.86c79.32-24.47,153.46-58,217.19-113.45,45.87-39.92,89.32-81.5,125-130.77A981.3,981.3,0,0,0,2128,1146.34C2144.19,1079.9,2148.94,1013,2136.78,945.08Z" transform="translate(-608.6 -297.06)"/></g><g class="cls-3"><path class="cls-5" d="M1532,1281.48c0-11.17.09-23.27,0-35.36a89.77,89.77,0,0,0-18-53.95c-3.5-4.71-6.63-9.72-9.71-14.72a44.54,44.54,0,0,1-5.27-34.91c2.26-9.64,2.16-9.69-7-14.47a47.14,47.14,0,0,1-12.84-8.91c-7.35-7.81-15.56-8-25.08-4.78a300.67,300.67,0,0,1-46.55,11.63,120.86,120.86,0,0,1-76.26-11,135.94,135.94,0,0,1-58.07-52.36c-15.72-26.47-19-54.53-15.13-84.14a178.72,178.72,0,0,1,36.23-85.75A329.64,329.64,0,0,0,1328.41,838c13.75-28.15,38.53-39.54,69-40,4.24-.07,8.49.31,12.73.59a93.3,93.3,0,0,0,40.17-6.92,245.08,245.08,0,0,1,60.27-16.77c16.19-1.83,29.62,2.5,40,15.58,5.27,6.67,11,12.92,16.75,19.22a36.52,36.52,0,0,0,28.84,12.17,104.57,104.57,0,0,0,27.15-3.6,64.18,64.18,0,0,1,53.61,7.51,76.24,76.24,0,0,0,63.2,8.15c8.2-2.28,6.67-1,11.25,6.51,7.5,12.34,5.73,25.83,8.13,38.8a113.85,113.85,0,0,0,10.65,31.48c8.52,16.58,16.37,33.47,23.95,50.49,10.58,23.71,25.29,45,39.17,66.73a30.29,30.29,0,0,0,17.84,12.92,218,218,0,0,0,28.85,5.71c4.53.68,9.07,1.25,13.54,2.2,22.51,4.74,32.54,22.57,24.47,44.22a106.62,106.62,0,0,1-27.89,41q-7.55,7-15.61,13.44a178.57,178.57,0,0,0-45,55.11,74.42,74.42,0,0,0-8.57,51.12c2,10.92,3.71,21.91,5.39,32.89,4.51,29.36-6,53.62-27,73.2a93,93,0,0,0-25.53,37.61,140.9,140.9,0,0,1-16.32,32.31,85.15,85.15,0,0,0-9.11,19.5c-14.65,41-43.14,68.66-82.45,85.76a171.89,171.89,0,0,1-63.3,16c-12.46.38-17.51-3.1-20.56-14.94a737.16,737.16,0,0,1-19.93-95.89c-1.08-9.08-1.71-18.23-2.32-27.36a86.19,86.19,0,0,0-13.9-43.43c-14.42-21.25-17.67-44.55-15.08-69.34C1531.42,1294.19,1531.55,1288.31,1532,1281.48Z" transform="translate(-608.6 -297.06)"/></g><g class="cls-3"><path class="cls-5" d="M1686.87,738.67c-7,3.33-14,6.75-21.07,10a14.11,14.11,0,0,0-8.22,10.33c-1.11,5.1-2,10.24-2.92,15.38-1.43,8.23-5.11,12.54-11.14,12.86-5.63.31-8.41-3.7-12.08-10.72-8.58-16.48-12-36.36-29.48-47.28-1.08-.67-2.08-1.42-5.15-3.49,2.89,6.39,6.25,10.52,5.11,15.92s-5.8,8.5-8.55,13.2c3,2,5.84,3.69,8.34,5.69a8.33,8.33,0,0,1,3.5,8.6,8.71,8.71,0,0,1-7.71,6.61,26.4,26.4,0,0,1-25.25-9.93,33.57,33.57,0,0,1-8.58-24.42c.63-10.15-4.55-16-12.54-20.2a97.56,97.56,0,0,0-35.59-10.11,28.5,28.5,0,0,0-12.51,1.71,176,176,0,0,0-49.78,26.95,90.65,90.65,0,0,0-23.7,28.5c-9.9,18.07-24.42,24.33-44.3,19.61a60.69,60.69,0,0,1-18.4-6.38,22,22,0,0,1-10.3-28.57,52.71,52.71,0,0,1,5.38-11.51c4.54-6.94,4.79-13.29-1-19.6a25.78,25.78,0,0,1-3.33-4.83c-6.25-11-.68-22.39,12-23.72a71.35,71.35,0,0,1,22.43,1.38,44,44,0,0,0,18.5.36c7.16-1.5,8.16-3.3,6.09-10.15a25.29,25.29,0,0,0-7.08-12.65,14,14,0,0,1-4.17-7.58,7.41,7.41,0,0,1,3.75-9.09,22.49,22.49,0,0,1,11-3.59,35,35,0,0,0,29.18-15.24,44.82,44.82,0,0,1,14.29-11.78,441.55,441.55,0,0,0,39.59-27.17,11.4,11.4,0,0,0,5.77-9.45,19.9,19.9,0,0,1,1.79-7.58,11.57,11.57,0,0,1,20.55-2.5,18.68,18.68,0,0,1,3.93,9.92,6.71,6.71,0,0,0,7.73,6.92c22.5-1,45.08-1.44,67-7.83a13.85,13.85,0,0,0,8.8-7.18c4.33-8.09,10.69-13.13,20.42-12.45a5.43,5.43,0,0,0,6.5-4.45,33,33,0,0,1,19-22.55c-5.71.94-11.43,1.86-17.14,2.85a37.84,37.84,0,0,1-18.37-1.67,21,21,0,0,1-15.84-23.88c.16-2.23.49-4.45.9-8.09a153.62,153.62,0,0,1-23.12,16.61c-3.25,1.8-3.68,5.21-4.19,8.45a168.44,168.44,0,0,1-6.2,26.7,46.93,46.93,0,0,1-6.12,13.34c-5.18,7.08-14.32,7.68-18.9.42-4.88-7.71-12.14-12.7-18.18-19a12.5,12.5,0,0,0-16-2.65c-4.12,2-8.1,4.2-12.09,6.41-2.57,1.42-4.93,3.27-7.6,4.45-7.79,3.45-15.34-.26-15.88-8.56a72.22,72.22,0,0,1,1.43-25.33,32.41,32.41,0,0,1,25.2-23.55,99.78,99.78,0,0,1,16.52-2c9.2-.58,10.53-1.91,12.25-10.79.42-2.24.77-4.51,1.25-6.74a36.32,36.32,0,0,1,18.75-25.09c35.42-19.68,72.26-23.86,110.44-9.29,12.12,4.62,23.81,8,37.09,5.62a81,81,0,0,1,27.34,1,31.12,31.12,0,0,1,13.58,5.27,12.33,12.33,0,0,1,5.76,12.64,11.13,11.13,0,0,1-10.32,9.07c-8,1.34-16.15,2.16-24.17,3.2a2,2,0,0,0,.33,1.86,2,2,0,0,0,1.71.81c12.39,1.21,24.78,2.18,36.67-3,5.09-2.24,10.36-4.07,15.31-6.56a381.83,381.83,0,0,1,59.66-22.12,17.09,17.09,0,0,1,15.64,2c12.91,8.28,26.21,16,39.28,24.07A302.82,302.82,0,0,1,1937,523.37c9.56,8.91,19.47,17.45,29.17,26.2a55.93,55.93,0,0,1,7,6.84c24.43,31.47,51.91,60.52,73,94.63a601.13,601.13,0,0,1,40.61,80.38c.52,1.2.9,2.46,1.46,3.64,17.11,35.84,24,74.33,30.24,113.14,3.86,24.18,9.61,48,14.41,72,1.73,8.64,3.39,17.32,4.68,26a55.38,55.38,0,0,1,.53,13.67,14.17,14.17,0,0,1-21.32,12,65.52,65.52,0,0,1-16-11.25,275.13,275.13,0,0,0-53.26-36.46,98.45,98.45,0,0,0-28.18-10.89A84,84,0,0,1,1986,899.91a19.16,19.16,0,0,0-12.89-3.88c-24.07,2-45.84-5.1-66.56-16.49a18.29,18.29,0,0,0-3.75-.81,93.74,93.74,0,0,0,12.63,28,13.26,13.26,0,0,0,14.76,5.24c6-1.35,12-3.21,17.92-5a33.75,33.75,0,0,1,30.69,5.38c11,7.68,12.79,17.66,5.28,28.76a25.35,25.35,0,0,1-4.34,5.29,13.39,13.39,0,0,0-5,12.13c1.48,16.67-6.85,26.91-21.17,34-26.06,12.92-51.84,26.36-77.78,39.49-16,8.09-28,3.82-32.3-13.51-5.8-23.28-18.68-42.22-32.69-60.82-4.91-6.52-9.91-13-14.55-19.72a73,73,0,0,1-12.69-27.44c-3.75-20.17-11.83-38.71-20-57.23-6.82-15.42-13.06-30.78-8.75-48.18.9-3.66-1.67-4.47-4.5-4.76a129.23,129.23,0,0,0-21.55.12,106.46,106.46,0,0,1-26.39-.89A53.48,53.48,0,0,1,1684,793a24.64,24.64,0,0,1-12.09-26.76A41.06,41.06,0,0,1,1683.6,743c1.34-1.28,3.34-2.25,3.12-4.61,8-2.18,14-7.92,21.15-11.59,21.47-11,43.8-16.55,68-12.38a23.4,23.4,0,0,0,11.46.09c-4.58-5.52-8.67-10.42-12.73-15.31-4.43-5.34-4.68-12.55-7.64-18.43-4.17,3.82-8.06,7.23-11.76,10.86-13.14,12.92-29.5,17.07-41-3.24-2.36-4.17-4.87-3.36-7.71-.54a25.5,25.5,0,0,0-8.41,17.19A59.13,59.13,0,0,1,1686.87,738.67Z" transform="translate(-608.6 -297.06)"/></g><g class="cls-3"><path class="cls-5" d="M910.14,1156.89a9,9,0,0,0,7,2,330.87,330.87,0,0,1,73.45,11.59,121.31,121.31,0,0,1,56.34,30.34,47.11,47.11,0,0,0,15.57,10c1.51.63,3,1.22,4.54,1.87,20,8.67,24.06,17.28,17.19,37.78-7.15,21.36-16.21,42.14-18.75,64.84-1.44,13-2.89,26-4.69,38.93a122.73,122.73,0,0,1-3.62,15.24,63,63,0,0,1-24.64,35.55c-10.07,7.27-20.2,14.48-30.45,21.49a40.63,40.63,0,0,0-17.45,27.06c-8.41,40.75-33,70.28-67,92.72a55.18,55.18,0,0,1-6.86,3.8,7.93,7.93,0,0,0-5,8.53c.8,13.49-6.18,22.92-16.6,30.35a166.32,166.32,0,0,1-19.37,11.51,9.86,9.86,0,0,1-11.66-1,364.87,364.87,0,0,1-63.39-56.81,632.72,632.72,0,0,1-64.32-91.27,21.47,21.47,0,0,1-2.95-13.09c.9-11.41,1.71-22.83,2.8-34.21a256.3,256.3,0,0,0,1-27.43,17,17,0,0,0-7.66-15,107.46,107.46,0,0,0-27.23-15.33c-1.55-.5-3.06-1.15-4.58-1.75a48.76,48.76,0,0,1-28.88-28.1,655.67,655.67,0,0,1-36.94-121.71,56.09,56.09,0,0,1,2.2-25.18,76.38,76.38,0,0,1,10.83-25.1,72.62,72.62,0,0,0,13.14-37.41c1.1-19.7,9.94-36.32,21.8-51.57a41.76,41.76,0,0,1,25-16.12,67.3,67.3,0,0,0,18.22-7c18.8-10,37.12-8.19,54.95,2.58,4.19,2.54,8.26,5.29,12.26,8.13a212.8,212.8,0,0,0,76.93,33.14,109.24,109.24,0,0,1,39.48,16.56,32.35,32.35,0,0,1,15.16,32.75c-.77,5.84-2,11.59-3,17.36C912,1147.73,911,1152.5,910.14,1156.89Z" transform="translate(-608.6 -297.06)"/></g><g class="cls-3"><path class="cls-5" d="M913.64,540.38c4.59,0,9.17-.36,13.72.06a29.41,29.41,0,0,1,27.62,28c.49,5.54,1.07,11.06,1.66,16.58a30.43,30.43,0,0,0,5.55,14.48,58.25,58.25,0,0,1,5.89,10.14c4.32,10.07,1.35,17.3-9.12,20.81-11.45,3.83-23.11,7.08-34.77,10.21a275.2,275.2,0,0,0-42,13.34,121.39,121.39,0,0,0-18.89,10.33,25,25,0,0,0-10.94,14.48,52.8,52.8,0,0,1-14.41,23A265.59,265.59,0,0,1,804.9,729.5c-18.25,13.26-36.39,26.67-53.93,40.84-5.08,4.11-10,8.42-14.94,12.72-22.43,19.52-42,41.35-53,69.47-9.26,23.61-27.16,40.43-44.12,58.09a18.64,18.64,0,0,1-5.48,4,8.09,8.09,0,0,1-12.24-7.59,41,41,0,0,1,1.11-9.69c11.36-54.22,29.35-106.41,49-158,7.68-20.14,16.4-39.88,24.59-59.84a248.11,248.11,0,0,1,34.12-58.18C741.47,606.61,752,591,764.56,577.39c25.92-28,50-57.89,79-83a315.05,315.05,0,0,1,65-43.6,26.88,26.88,0,0,1,18.8-2.8c3.86.88,5.32,1.64,3.4,5.59A30.2,30.2,0,0,1,918,467.78c-20.68,11.46-31.12,30.12-34.9,52.77-2,12.15,3.56,18.73,15.83,19.68,4.88.38,9.81.06,14.71.06Z" transform="translate(-608.6 -297.06)"/></g><g class="cls-3"><path class="cls-5" d="M1114.12,347.73c14,.93,28.12,1.21,42,2.92a185.7,185.7,0,0,0,68-5.4,262.68,262.68,0,0,1,75.64-9,154.75,154.75,0,0,1,30.08,3.86c23,5.75,30.21,29.67,14.1,47.27a70.9,70.9,0,0,1-12.5,11c-33,22.34-66.38,44.18-103,60.33-8.66,3.82-17.51,7.21-26.36,10.57A376.77,376.77,0,0,0,1138,500.72c-7.5,4.62-15.28,8.81-23.06,12.92a44.6,44.6,0,0,1-16.78,5.07,31.18,31.18,0,0,1-34.48-21.43,70.66,70.66,0,0,1-4.17-35.63c.72-4.83.8-9.75,1.2-14.63,1.07-13.06-4.81-22.58-15.06-30a191.65,191.65,0,0,0-28.2-15.74,59.06,59.06,0,0,1-14.17-8.64c-11.16-10.1-9.63-19.68,4.34-25.11a170.16,170.16,0,0,1,19.58-6.14,451.08,451.08,0,0,1,62.43-12.25C1097.79,348.3,1105.93,347.91,1114.12,347.73Z" transform="translate(-608.6 -297.06)"/></g><g class="cls-3"><path class="cls-5" d="M1450.94,614.11a17,17,0,0,1-6.61,13.2,91.58,91.58,0,0,1-34.59,15.27,11.49,11.49,0,0,1-12.92-4.79,12.57,12.57,0,0,1,.3-14.67,8.55,8.55,0,0,1,1.7-2.38c9.9-7.75,7.85-17.61,4.86-27.58a61.08,61.08,0,0,0-3.68-10.08c-3-5.94-.83-11.53.84-17.07a5.79,5.79,0,0,1,7.91-3.75,14.27,14.27,0,0,1,4.41,2,97.8,97.8,0,0,1,36.23,43.76A43.78,43.78,0,0,1,1450.94,614.11Z" transform="translate(-608.6 -297.06)"/></g><g class="cls-3"><path class="cls-5" d="M1368.73,618.91a13.53,13.53,0,0,1-9.38-3,51.93,51.93,0,0,0-27.69-8.63,27.38,27.38,0,0,1-14.05-3.68,10.63,10.63,0,0,1-.58-18.62,22.87,22.87,0,0,1,7-3.28,132.78,132.78,0,0,1,27.15-3.45,13.28,13.28,0,0,1,10.51,4.16c5.6,5.39,12.76,9.2,16.42,16.52a64.69,64.69,0,0,1,2.86,6.22c3.39,9,1.09,12.51-8.65,13.34C1371.39,618.54,1370.41,618.69,1368.73,618.91Z" transform="translate(-608.6 -297.06)"/></g><g class="cls-3"><path class="cls-6" d="M1383,1103.87c-41-.53-71.68-13.69-96.54-40.8-15.63-17-25.75-37.39-21.32-62.54,1.33-7.58,3.57-16.93,13.38-17.09,7.78-.14,9.63,7.09,10.65,13.55,7.3,46.38,40,59.89,76,66.16,43.89,7.65,72.15-10.74,91.48-55.13,1.95-4.47,3.29-9.28,5.47-13.6,5-9.88,15-14.54,22.93-10.55,9.58,4.83,12.64,13.93,11.39,24.52a91,91,0,0,1-19,44.46C1451.73,1087,1402.22,1103.6,1383,1103.87Z" transform="translate(-608.6 -297.06)"/></g><g class="cls-3"><path class="cls-7" d="M829.76,946.43c22.5,1.32,41.84,1.37,60,12.67,30.36,18.89,38.26,48.67,23.38,87.71-9.74,25.55-23.67,44.51-44.08,55.81-25.55,14.13-51.56,24.2-79.72,22.52-29.43-1.75-52.56-18.33-70-48.86-12.72-22.22-13.38-40.71-1.34-63.85,19.42-37.36,48.83-53.73,81.16-62.56C810.08,946.87,821.59,947.26,829.76,946.43Z" transform="translate(-608.6 -297.06)"/></g><g class="cls-3"><path class="cls-7" d="M1923.39,1120.48c-33.81-1.08-65.12-14.35-92.07-44.37-32.53-36.23-28.68-82.51,8.48-105.47,47.41-29.3,93.38-19.81,138.69,11.57,28.14,19.49,34.79,89.77.78,117.73C1961.87,1114.25,1943.41,1121.3,1923.39,1120.48Z" transform="translate(-608.6 -297.06)"/></g><g class="cls-3"><path class="cls-6" d="M1113.46,912.83c7.89.57,14.67.58,21,5.42,10.64,8.08,13.42,20.83,8.2,37.53-3.42,10.94-8.31,19.05-15.47,23.88-9,6.05-18.08,10.36-28,9.64-10.31-.75-18.43-7.86-24.56-20.91a30.26,30.26,0,0,1-.47-27.32,44.31,44.31,0,0,1,28.46-26.77A50,50,0,0,1,1113.46,912.83Z" transform="translate(-608.6 -297.06)"/></g><g class="cls-3"><path class="cls-6" d="M1630.48,1000.41c-12.28-.47-23.65-6.23-33.43-19.24-11.81-15.7-10.42-35.76,3.08-45.72,17.21-12.69,33.9-8.58,50.35,5,10.22,8.46,12.63,38.92.28,51A26.72,26.72,0,0,1,1630.48,1000.41Z" transform="translate(-608.6 -297.06)"/></g></g></svg>